<svg xmlns="http://www.w3.org/2000/svg" xmlns:xlink="http://www.w3.org/1999/xlink" version="1.1" x="0px" y="0px" viewBox="0 0 50 62.5" style="fill:white" enable-background="new 0 0 50 50" xml:space="preserve">
    <g>
        <path d="M47.5,21.7l-4.1-4c-0.2-0.2-0.4-0.3-0.7-0.3h-3l0.3-3.7c0-0.3-0.1-0.6-0.3-0.8C28.2,1.7,29.2,2.1,28.1,2.2   c-4.8,0-13,0.5-14.4,3.5c-0.1,0.3-0.1,0.6,0.1,0.9c0.2,0.3,0.5,0.5,0.8,0.5c0.1,0,8.8,0.6,10.7,6.1c-2.5,3.3-3,3.8-21.7,25.2   c-1.9,2.2-1.9,5.5,0.1,7.7c2.4,2.5,6.3,2.3,8.5-0.2l17.1-19.6c0.4-0.2-0.3,0.3,3.9-3.5l1.2,1v2.5c0,0.3,0.1,0.5,0.3,0.7l3.9,4.1   c0.2,0.2,0.5,0.3,0.7,0.3c0,0,0,0,0,0c0.3,0,0.5-0.1,0.7-0.3l7.4-8C47.9,22.6,47.9,22,47.5,21.7z M10.7,44.6   c-1.4,1.6-4,1.7-5.5,0.1c-1.3-1.4-1.4-3.5-0.1-5l17.1-19.6l5.2,5.4L10.7,44.6z M39.4,29l-2.9-3.1v-2.6c0-0.3-0.1-0.6-0.4-0.8   l-2.2-1.9c-0.4-0.3-0.9-0.3-1.3,0L29,24l-5.2-5.6l3.5-4.4c0.2-0.3,0.3-0.6,0.2-0.9C26,8,20.5,6.1,17.2,5.5   c2.2-0.8,6.2-1.3,10.8-1.3l10,9.8l-0.4,4.3c0,0.3,0.1,0.6,0.3,0.8c0.2,0.2,0.5,0.3,0.7,0.3h3.7l3.1,3.1L39.4,29z" />
    </g>
</svg>