<svg xmlns:dc="http://purl.org/dc/elements/1.1/" xmlns:cc="http://creativecommons.org/ns#" xmlns:rdf="http://www.w3.org/1999/02/22-rdf-syntax-ns#" xmlns:svg="http://www.w3.org/2000/svg" xmlns="http://www.w3.org/2000/svg" xmlns:sodipodi="http://sodipodi.sourceforge.net/DTD/sodipodi-0.dtd" xmlns:inkscape="http://www.inkscape.org/namespaces/inkscape" version="1.1" xml:space="preserve" viewBox="0 0 32 40" x="0px" y="0px">
    <g>
        <path style="color:#ffffff;font-style:normal;font-variant:normal;font-weight:normal;font-stretch:normal;font-size:medium;line-height:normal;font-family:sans-serif;font-variant-ligatures:normal;font-variant-position:normal;font-variant-caps:normal;font-variant-numeric:normal;font-variant-alternates:normal;font-feature-settings:normal;text-indent:0;text-align:start;text-decoration:none;text-decoration-line:none;text-decoration-style:solid;text-decoration-color:#000000;letter-spacing:normal;word-spacing:normal;text-transform:none;writing-mode:lr-tb;direction:ltr;text-orientation:mixed;dominant-baseline:auto;baseline-shift:baseline;text-anchor:start;white-space:normal;shape-padding:0;clip-rule:nonzero;display:inline;overflow:visible;visibility:visible;opacity:1;isolation:auto;mix-blend-mode:normal;color-interpolation:sRGB;color-interpolation-filters:linearRGB;solid-color:#ffffff;solid-opacity:1;vector-effect:none;fill:#ffffff;fill-opacity:1;fill-rule:nonzero;stroke:none;stroke-width:2.00000024;stroke-linecap:round;stroke-linejoin:round;stroke-miterlimit:4;stroke-dasharray:none;stroke-dashoffset:0;stroke-opacity:1;color-rendering:auto;image-rendering:auto;shape-rendering:auto;text-rendering:auto;enable-background:accumulate" d="m 16.000971,2.0000336 c -0.50476,0 -1.00954,0.33946 -0.99997,1.01562 v 3.12891 l -1.83784,-1.83984 c -0.39297,-0.4043 -1.04351,-0.40443 -1.4316,-0.004 -0.38787,0.40062 -0.37778,1.03331 0.0176,1.41797 1.08398,1.08398 2.16788,2.16793 3.25186,3.25195 v 5.2988304 l -4.58971,-2.64844 c -0.39685,-1.4811 -0.7925897,-2.9622604 -1.1894197,-4.4433604 -0.13546,-0.53469 -0.67784,-0.85826 -1.21872,-0.72265 -0.54081,0.13589 -0.8665,0.69774 -0.71287,1.24023 l 0.67381,2.5117204 -2.71086,-1.5644504 c -0.47385,-0.28231 -1.0864,-0.12882 -1.373,0.34961 -0.28635,0.47856 -0.11919,1.1059004 0.37303,1.3808604 l 2.70891,1.56445 -2.50969,0.67187 c -0.54662,0.13819 -0.87146,0.70197 -0.71873,1.23829 0.15299,0.53623 0.70553,0.84339 1.23629,0.69335 1.48029,-0.39666 2.96097,-0.79279 4.44128,-1.18945 l 4.5897097,2.65039 -4.5897097,2.64844 c -1.48031,-0.39666 -2.96099,-0.79279 -4.44128,-1.18945 -0.53076,-0.15004 -1.0833,0.15713 -1.23629,0.69336 -0.15273,0.53632 0.17211,1.10009 0.71873,1.23828 l 2.51164,0.67187 -2.71086,1.56446 c -0.49222,0.27496 -0.65938,0.90229 -0.37303,1.38086 0.2866,0.47843 0.89915,0.6319 1.373,0.3496 l 2.71086,-1.56445 -0.67381,2.51172 c -0.15363,0.54249 0.17205,1.10434 0.71287,1.24023 0.54088,0.13561 1.08326,-0.18797 1.21872,-0.72265 0.39683,-1.48109 0.7925597,-2.96226 1.1894197,-4.44336 l 4.58971,-2.64844 v 5.29883 c -1.08398,1.08402 -2.16788,2.16797 -3.25186,3.25195 -0.39536,0.38466 -0.40545,1.01735 -0.0176,1.41797 0.38809,0.40052 1.03863,0.4004 1.4316,-0.004 l 1.83784,-1.8379 v 3.12696 c -0.008,0.56377 0.45017,1.02238 1.00778,1.01367 0.55762,-0.009 0.99971,-0.46214 0.99216,-1.01367 v -3.12305 l 1.83589,1.83399 c 0.39298,0.4043 1.0435,0.40442 1.4316,0.004 0.38787,-0.40062 0.37778,-1.03331 -0.0176,-1.41797 -1.08334,-1.08333 -2.16658,-2.16663 -3.24991,-3.25 v -5.29883 l 4.58776,2.64844 c 0.3967,1.48051 0.79471,2.96091 1.19137,4.44141 0.13546,0.53468 0.67784,0.85826 1.21872,0.72265 0.54082,-0.1359 0.8665,-0.69774 0.71287,-1.24023 l -0.67186,-2.50977 2.70695,1.5625 c 1.16155,0.69275 2.18064,-1.07279 0.99997,-1.73242 l -2.70695,-1.5625 2.50775,-0.67187 c 0.54661,-0.13819 0.87145,-0.70196 0.71873,-1.23828 -0.153,-0.53623 -0.70553,-0.84339 -1.2363,-0.69336 -1.47968,0.3965 -2.95962,0.79295 -4.43933,1.18945 l -4.58971,-2.64844 4.58971,-2.65039 c 1.47971,0.3965 2.95966,0.79295 4.43933,1.18945 0.53077,0.15003 1.0833,-0.15712 1.2363,-0.69335 0.15272,-0.53632 -0.17212,-1.1001 -0.71873,-1.23829 l -2.50775,-0.67187 2.70695,-1.5625 c 1.18067,-0.6596204 0.16158,-2.4251604 -0.99997,-1.7324204 l -2.7089,1.5644504 0.67381,-2.5117204 c 0.15363,-0.54249 -0.17206,-1.10434 -0.71287,-1.24023 -0.54088,-0.13561 -1.08326,0.18797 -1.21872,0.72265 -0.39683,1.48111 -0.79451,2.9622504 -1.19137,4.4433604 l -4.58776,2.64844 V 8.9686936 c 1.08333,-1.08337 2.16657,-2.16667 3.24991,-3.25 0.39536,-0.38466 0.40545,-1.01735 0.0176,-1.41797 -0.3881,-0.40052 -1.03862,-0.40039 -1.4316,0.004 l -1.83589,1.83593 v -3.125 c 0.01,-0.67616 -0.4952,-1.01562 -0.99997,-1.01562 z" />
    </g>
</svg>