<svg xmlns="http://www.w3.org/2000/svg" xmlns:xlink="http://www.w3.org/1999/xlink" version="1.1" x="0px" y="0px" viewBox="0 0 64 64" style="enable-background:new 0 0 64 64; fill:white" xml:space="preserve">
    <title>Artboard 31</title>
    <path d="M44,32c0-6.6-5.4-12-12-12s-12,5.4-12,12s5.4,12,12,12S44,38.6,44,32z M32,42c-5.5,0-10-4.5-10-10s4.5-10,10-10  s10,4.5,10,10S37.5,42,32,42z" />
    <path d="M33,15V5c0-0.6-0.4-1-1-1s-1,0.4-1,1v10c0,0.6,0.4,1,1,1S33,15.6,33,15z" />
    <path d="M31,49v10c0,0.6,0.4,1,1,1s1-0.4,1-1V49c0-0.6-0.4-1-1-1S31,48.4,31,49z" />
    <path d="M60,32c0-0.6-0.4-1-1-1H49c-0.6,0-1,0.4-1,1s0.4,1,1,1h10C59.6,33,60,32.6,60,32z" />
    <path d="M5,33h10c0.6,0,1-0.4,1-1s-0.4-1-1-1H5c-0.6,0-1,0.4-1,1S4.4,33,5,33z" />
    <path d="M50.4,51.8c0.2,0.2,0.4,0.3,0.7,0.3c0.3,0,0.5-0.1,0.7-0.3c0.4-0.4,0.4-1,0-1.4c0,0,0,0,0,0l-7.1-7.1c-0.4-0.4-1-0.4-1.4,0  s-0.4,1,0,1.4L50.4,51.8z" />
    <path d="M20.7,20.7c0.4-0.4,0.4-1,0-1.4c0,0,0,0,0,0l-7.1-7.1c-0.4-0.4-1-0.4-1.4,0s-0.4,1,0,1.4l7.1,7.1  C19.7,21.1,20.3,21.1,20.7,20.7C20.7,20.7,20.7,20.7,20.7,20.7z" />
    <path d="M12.2,51.8c0.2,0.2,0.4,0.3,0.7,0.3c0.3,0,0.5-0.1,0.7-0.3l7.1-7.1c0.4-0.4,0.4-1,0-1.4c-0.4-0.4-1-0.4-1.4,0l0,0l-7.1,7.1  C11.8,50.8,11.8,51.4,12.2,51.8C12.2,51.8,12.2,51.8,12.2,51.8z" />
    <path d="M44.7,20.7l7.1-7.1c0.4-0.4,0.4-1,0-1.4c-0.4-0.4-1-0.4-1.4,0l-7.1,7.1c-0.4,0.4-0.4,1,0,1.4c0,0,0,0,0,0  C43.7,21.1,44.3,21.1,44.7,20.7C44.7,20.7,44.7,20.7,44.7,20.7z" />
    <text x="0" y="79" fill="#000000" font-size="5px" font-weight="bold" font-family="'Helvetica Neue', Helvetica, Arial-Unicode, Arial, Sans-serif">Created by Saurus Icon</text>
    <text x="0" y="84" fill="#000000" font-size="5px" font-weight="bold" font-family="'Helvetica Neue', Helvetica, Arial-Unicode, Arial, Sans-serif">from the Noun Project</text>
</svg>