<svg xmlns="http://www.w3.org/2000/svg" xmlns:xlink="http://www.w3.org/1999/xlink" version="1.1" x="0px" y="0px" style="fill: white" viewBox="0 0 125 125" enable-background="new 0 0 100 100" xml:space="preserve">
    <g>
        <path d="M64.077,36.215c0.656-2.271,0.918-4.585,1.051-6.831c0.204-4.51-0.428-8.783-1.499-12.837   c-0.3-1.009-0.551-2.019-0.893-3.005c-0.361-0.982-0.704-1.958-1.095-2.922C60.894,8.69,59.947,6.825,58.934,5   c-0.735,4.147-1.026,8.127-1.646,11.97c-0.561,3.829-1.193,7.514-2.221,10.825c-1.035,3.328-2.331,6.172-4.183,8.822   c-1.788,2.678-4.265,5.355-6.864,8.868c-1.287,1.72-2.538,3.705-3.613,5.782c-1.068,2.099-1.93,4.334-2.54,6.594   c-0.337,1.125-0.516,2.265-0.751,3.397c-0.19,1.129-0.282,2.259-0.407,3.382c-0.061,1.116-0.101,2.222-0.13,3.327   c0.016,1.099,0.094,2.18,0.142,3.262c0.368,4.296,1.152,8.433,2.427,12.383c0.589,1.988,1.377,3.909,2.15,5.82   c0.828,1.896,1.753,3.756,2.802,5.568c1.211-8.261,1.583-16.133,2.835-23.366c0.174-0.891,0.315-1.788,0.508-2.657l0.59-2.561   l0.728-2.44c0.306-0.769,0.518-1.576,0.847-2.313c1.22-3.017,2.764-5.621,4.896-8.495c2.07-2.862,4.847-6.161,7.02-10.352   C62.605,40.748,63.509,38.504,64.077,36.215z" />
        <path d="M74.054,33.528c-0.209-0.703-0.384-1.407-0.622-2.093c-0.251-0.684-0.491-1.364-0.763-2.036   c-0.522-1.345-1.181-2.644-1.887-3.916c-0.512,2.889-0.715,5.662-1.147,8.339c-0.391,2.667-0.831,5.235-1.547,7.541   c-0.721,2.319-1.624,4.3-2.914,6.146c-1.246,1.866-2.971,3.73-4.781,6.178c-0.897,1.198-1.768,2.581-2.517,4.028   c-0.744,1.462-1.344,3.02-1.77,4.594c-0.235,0.784-0.359,1.578-0.523,2.366c-0.132,0.786-0.197,1.573-0.283,2.356   c-0.043,0.777-0.07,1.548-0.091,2.318c0.011,0.766,0.065,1.519,0.099,2.273c0.257,2.993,0.803,5.875,1.691,8.626   c0.411,1.385,0.959,2.723,1.498,4.055c0.577,1.321,1.221,2.617,1.952,3.879c0.844-5.755,1.103-11.239,1.975-16.278   c0.121-0.621,0.219-1.246,0.354-1.851l0.411-1.784l0.507-1.7c0.213-0.536,0.361-1.098,0.59-1.612   c0.85-2.102,1.925-3.916,3.411-5.918c1.442-1.994,3.377-4.292,4.89-7.212c0.753-1.441,1.383-3.005,1.779-4.599   c0.457-1.582,0.64-3.194,0.732-4.759C75.24,39.329,74.8,36.352,74.054,33.528z" />
        <path d="M42.254,39.162c0.753-1.441,1.383-3.005,1.779-4.599c0.457-1.582,0.64-3.194,0.732-4.759   c0.142-3.142-0.298-6.119-1.044-8.943c-0.209-0.703-0.384-1.407-0.622-2.093c-0.251-0.684-0.491-1.364-0.763-2.036   c-0.522-1.345-1.181-2.644-1.887-3.916c-0.512,2.889-0.715,5.662-1.147,8.339c-0.391,2.667-0.831,5.235-1.547,7.541   c-0.721,2.319-1.624,4.3-2.914,6.146c-1.246,1.866-2.971,3.73-4.781,6.178c-0.897,1.198-1.768,2.581-2.517,4.028   c-0.744,1.462-1.344,3.02-1.77,4.594c-0.235,0.784-0.359,1.578-0.523,2.366c-0.133,0.786-0.197,1.573-0.283,2.356   c-0.043,0.777-0.07,1.548-0.091,2.318c0.011,0.766,0.065,1.519,0.099,2.273c0.257,2.993,0.803,5.875,1.691,8.626   c0.411,1.385,0.959,2.723,1.498,4.055c0.577,1.321,1.221,2.617,1.952,3.879c0.844-5.755,1.103-11.239,1.975-16.278   c0.121-0.621,0.219-1.246,0.354-1.851l0.411-1.784l0.508-1.7c0.213-0.536,0.361-1.098,0.59-1.612   c0.85-2.102,1.925-3.916,3.411-5.918C38.805,44.38,40.74,42.082,42.254,39.162z" />
    </g>
    <text x="0" y="115" fill="#000000" font-size="5px" font-weight="bold" font-family="'Helvetica Neue', Helvetica, Arial-Unicode, Arial, Sans-serif">Created by Justin Blake</text>
    <text x="0" y="120" fill="#000000" font-size="5px" font-weight="bold" font-family="'Helvetica Neue', Helvetica, Arial-Unicode, Arial, Sans-serif">from the Noun Project</text>
</svg>